<?xml version="1.0" encoding="UTF-8" standalone="no"?>
<!DOCTYPE svg PUBLIC "-//W3C//DTD SVG 1.1//EN" "http://www.w3.org/Graphics/SVG/1.1/DTD/svg11.dtd">
<svg version="1.1" xmlns="http://www.w3.org/2000/svg" xmlns:xlink="http://www.w3.org/1999/xlink" preserveAspectRatio="xMidYMid meet" viewBox="0 0 640 640" width="640" height="640"><defs><path d="" id="bc5SuyHtN"></path><path d="M150.27 295.88L167.48 346.36L201.9 394.27L222.36 418.63L256.45 447.85L294.44 471.23L341.2 479.03L399.65 480L435.7 465.39L475.64 444.74L494.15 427.4L470.77 432.27L438.62 437.14L403.55 436.16L355.82 423.5L315.88 400.9L289.57 371.67L271.06 345.57L260.35 304.65L256.45 265.68L585.46 266.06L585.46 235.83L585.46 206.06L553.05 206.36L534.54 206.36L487.51 206.36L463.45 206.36L436.02 206.36C403.31 206.36 382.86 206.36 374.68 206.36C374.68 206.36 367.8 206.4 367.8 206.4C357.67 206.5 332.36 206.76 291.85 207.17L263.45 207.17L220.73 207.17L187.61 207.17L163.45 207.17L149.62 207.17L143.45 219.9L143.45 269.39L150.27 295.88Z" id="b1jKvFrVuy"></path></defs><g><g><g><use xlink:href="#bc5SuyHtN" opacity="1" fill="#000000" fill-opacity="1"></use><g><use xlink:href="#bc5SuyHtN" opacity="1" fill-opacity="0" stroke="#000000" stroke-width="1" stroke-opacity="1"></use></g></g><g><use xlink:href="#b1jKvFrVuy" opacity="1" fill="#000000" fill-opacity="1"></use><g><use xlink:href="#b1jKvFrVuy" opacity="1" fill-opacity="0" stroke="#000000" stroke-width="1" stroke-opacity="1"></use></g></g></g></g></svg>