<?xml version="1.0" encoding="UTF-8" standalone="no"?>
<!DOCTYPE svg PUBLIC "-//W3C//DTD SVG 1.1//EN" "http://www.w3.org/Graphics/SVG/1.1/DTD/svg11.dtd">
<svg version="1.1" xmlns="http://www.w3.org/2000/svg" xmlns:xlink="http://www.w3.org/1999/xlink" preserveAspectRatio="xMidYMid meet" viewBox="0 0 640 640" width="640" height="640"><defs><path d="" id="aPYFRJMVd"></path><path d="M116.95 382.05L139.35 422L168.58 480.45L189.04 504.8L223.13 534.02L261.13 557.4L307.89 565.2L366.34 566.17L402.38 551.56L442.32 530.91L460.83 513.57L437.45 518.44L405.3 523.31L370.23 522.33L322.5 509.67L282.56 487.07L256.25 457.84L237.75 431.74L227.03 390.82L223.13 351.86L558.25 355.56L563.12 315.81L560.19 278.79L548.5 238.66L526.1 197.94L494.93 156.05L437.45 116.11L370.23 94.68L329.32 92.53L276.71 100.52L237.75 115.13L197.8 139.49L168.58 169.69L139.35 206.7L118.9 253.27L110.13 306.07L110.13 355.56L116.95 382.05Z" id="d2aqwNN4K"></path></defs><g><g><g><g><use xlink:href="#aPYFRJMVd" opacity="1" fill-opacity="0" stroke="#000000" stroke-width="1" stroke-opacity="1"></use></g></g><g><g><use xlink:href="#d2aqwNN4K" opacity="1" fill-opacity="0" stroke="#000000" stroke-width="1" stroke-opacity="1"></use></g></g></g></g></svg>