<?xml version="1.0" encoding="UTF-8" standalone="no"?>
<!DOCTYPE svg PUBLIC "-//W3C//DTD SVG 1.1//EN" "http://www.w3.org/Graphics/SVG/1.1/DTD/svg11.dtd">
<svg version="1.1"
    xmlns="http://www.w3.org/2000/svg"
    xmlns:xlink="http://www.w3.org/1999/xlink" preserveAspectRatio="xMidYMid meet" viewBox="0 0 640 640" width="640" height="640">
    <defs>
        <!-- <path d="" id="bc5SuyHtN"></path> -->
        <path d="M126.82 369.52L144.03 420L178.45 467.91L198.91 492.27L233 521.49L271 544.87L317.76 552.67L376.21 553.64L412.25 539.03L452.19 518.37L470.7 501.03L447.32 505.91L415.17 510.78L380.1 509.8L332.37 497.14L292.43 474.54L266.12 445.31L247.62 419.2L236.9 378.29L233 339.32L568.12 343.02L572.99 303.28L570.06 266.26L558.37 226.12L535.97 185.4L504.8 143.52L447.32 103.57L380.1 82.14L339.19 80L286.58 87.99L247.62 102.6L207.67 126.95L178.45 157.15L149.22 194.17L128.77 240.74L120 293.54L120 343.02L126.82 369.52Z" id="a3MMJ2UQk"></path>
    </defs>
    <g>
        <g>
            <g>
                <use xlink:href="#bc5SuyHtN" opacity="1" fill="#000000" fill-opacity="1"></use>
                <g>
                    <use xlink:href="#bc5SuyHtN" opacity="1" fill-opacity="0" stroke="#000000" stroke-width="1" stroke-opacity="1"></use>
                </g>
            </g>
            <g>
                <use xlink:href="#a3MMJ2UQk" opacity="1" fill="#000000" fill-opacity="1"></use>
                <g>
                    <use xlink:href="#a3MMJ2UQk" opacity="1" fill-opacity="0" stroke="#000000" stroke-width="1" stroke-opacity="1"></use>
                </g>
            </g>
        </g>
    </g>
</svg>