<?xml version="1.0" encoding="UTF-8" standalone="no"?>
<!DOCTYPE svg PUBLIC "-//W3C//DTD SVG 1.1//EN" "http://www.w3.org/Graphics/SVG/1.1/DTD/svg11.dtd">
<svg version="1.1" xmlns="http://www.w3.org/2000/svg" xmlns:xlink="http://www.w3.org/1999/xlink" preserveAspectRatio="xMidYMid meet" viewBox="0 0 640 640" width="640" height="640"><defs><path d="M234.43 491.2L267.28 520.42L294.16 533.54L307.73 539.24L329.47 543.08L352.8 539.24L374.32 529.76L392.89 521.08L418.24 497.76L395.9 500.53L377.24 501.51L349.86 500.53L307.56 489.23L287.4 466.63L263.65 442.53L245.14 411.3L234.43 370.38L230.53 331.41L559.54 331.79L559.54 301.56L559.54 125.12L520.96 125.08L502.45 125.08C474.23 125.08 458.56 125.08 455.42 125.08C440.99 125.08 432.97 125.08 431.36 125.08C414.9 125.08 405.76 125.08 403.93 125.08C371.22 125.08 350.77 125.08 342.59 125.08C342.59 125.08 335.71 125.12 335.71 125.12C325.58 125.22 300.27 125.48 259.76 125.89C257.87 125.89 248.4 125.89 231.36 125.89C228.51 125.89 214.27 125.89 188.64 125.89C186.43 125.89 175.39 125.89 155.52 125.89L131.36 125.89L117.53 125.89L114.97 227.51L117.53 335.12L138.03 370.38L171.48 418.08L209.26 464.28L234.43 491.2Z" id="e8H8fO6oa"></path></defs><g><g><g><use xlink:href="#e8H8fO6oa" opacity="1" fill="#000000" fill-opacity="0"></use><g><use xlink:href="#e8H8fO6oa" opacity="1" fill-opacity="0" stroke="#000000" stroke-width="1" stroke-opacity="1"></use></g></g></g></g></svg>