{
    "asset" : {
        "generator" : "Khronos glTF Blender I/O v1.5.17",
        "version" : "2.0"
    },
    "extensionsUsed" : [
        "KHR_materials_transmission"
    ],
    "scene" : 0,
    "scenes" : [
        {
            "name" : "Scene",
            "nodes" : [
                0,
                1,
                2,
                3
            ]
        }
    ],
    "nodes" : [
        {
            "name" : "Camera",
            "rotation" : [
                0.483536034822464,
                0.33687159419059753,
                -0.20870360732078552,
                0.7804827094078064
            ],
            "translation" : [
                7.358891487121582,
                4.958309173583984,
                6.925790786743164
            ]
        },
        {
            "mesh" : 0,
            "name" : "glass.001",
            "rotation" : [
                0.7013262510299683,
                -0.090230293571949,
                0.090230293571949,
                -0.7013262510299683
            ],
            "scale" : [
                0.8402479887008667,
                0.8402482867240906,
                0.8402482867240906
            ]
        },
        {
            "name" : "Point",
            "translation" : [
                0,
                2.6890008449554443,
                2.5208888053894043
            ]
        },
        {
            "name" : "Point.001",
            "translation" : [
                2.225785255432129,
                -4.142749786376953,
                -0.1915653645992279
            ]
        }
    ],
    "materials" : [
        {
            "alphaMode" : "BLEND",
            "doubleSided" : true,
            "extensions" : {
                "KHR_materials_transmission" : {
                    "transmissionFactor" : 0.8999999761581421
                }
            },
            "name" : "EEVEE Glass Shader",
            "pbrMetallicRoughness" : {
                "baseColorFactor" : [
                    0.10702310502529144,
                    0.07421357929706573,
                    0.34670406579971313,
                    1
                ],
                "metallicFactor" : 0,
                "roughnessFactor" : 0.05000000074505806
            }
        },
        {
            "doubleSided" : true,
            "name" : "Material.002",
            "pbrMetallicRoughness" : {
                "baseColorFactor" : [
                    1,
                    1,
                    1,
                    0.9834710955619812
                ],
                "baseColorTexture" : {
                    "index" : 0
                },
                "metallicFactor" : 0.6872727274894714,
                "roughnessFactor" : 0.19649124145507812
            }
        },
        {
            "doubleSided" : true,
            "name" : "Material",
            "pbrMetallicRoughness" : {
                "baseColorFactor" : [
                    0.052748847752809525,
                    0.036894168704748154,
                    0.14278368651866913,
                    1
                ],
                "metallicFactor" : 0.2581818103790283,
                "metallicRoughnessTexture" : {
                    "index" : 1
                }
            }
        },
        {
            "doubleSided" : true,
            "name" : "Material.001",
            "pbrMetallicRoughness" : {
                "roughnessFactor" : 0.25
            }
        }
    ],
    "meshes" : [
        {
            "name" : "Plane.002",
            "primitives" : [
                {
                    "attributes" : {
                        "POSITION" : 0,
                        "NORMAL" : 1,
                        "TEXCOORD_0" : 2,
                        "TEXCOORD_1" : 3,
                        "TEXCOORD_2" : 4
                    },
                    "indices" : 5,
                    "material" : 0
                },
                {
                    "attributes" : {
                        "POSITION" : 6,
                        "NORMAL" : 7,
                        "TEXCOORD_0" : 8,
                        "TEXCOORD_1" : 9,
                        "TEXCOORD_2" : 10
                    },
                    "indices" : 11,
                    "material" : 1
                },
                {
                    "attributes" : {
                        "POSITION" : 12,
                        "NORMAL" : 13,
                        "TEXCOORD_0" : 14,
                        "TEXCOORD_1" : 15,
                        "TEXCOORD_2" : 16
                    },
                    "indices" : 17,
                    "material" : 2
                },
                {
                    "attributes" : {
                        "POSITION" : 18,
                        "NORMAL" : 19,
                        "TEXCOORD_0" : 20,
                        "TEXCOORD_1" : 21,
                        "TEXCOORD_2" : 22
                    },
                    "indices" : 23,
                    "material" : 3
                }
            ]
        }
    ],
    "textures" : [
        {
            "sampler" : 0,
            "source" : 0
        },
        {
            "sampler" : 0,
            "source" : 1
        }
    ],
    "images" : [
        {
            "mimeType" : "image/jpeg",
            "name" : "blender phoneimg",
            "uri" : "blender%20phoneimg.jpg"
        },
        {
            "mimeType" : "image/jpeg",
            "name" : "ice blue brushed metal roughness map",
            "uri" : "ice%20blue%20brushed%20metal%20roughness%20map.jpg"
        }
    ],
    "accessors" : [
        {
            "bufferView" : 0,
            "componentType" : 5126,
            "count" : 504,
            "max" : [
                -1.6477245092391968,
                0.11656009405851364,
                9.98568058013916
            ],
            "min" : [
                -3.6477246284484863,
                0.03330204263329506,
                7.98568058013916
            ],
            "type" : "VEC3"
        },
        {
            "bufferView" : 1,
            "componentType" : 5126,
            "count" : 504,
            "type" : "VEC3"
        },
        {
            "bufferView" : 2,
            "componentType" : 5126,
            "count" : 504,
            "type" : "VEC2"
        },
        {
            "bufferView" : 3,
            "componentType" : 5126,
            "count" : 504,
            "type" : "VEC2"
        },
        {
            "bufferView" : 4,
            "componentType" : 5126,
            "count" : 504,
            "type" : "VEC2"
        },
        {
            "bufferView" : 5,
            "componentType" : 5123,
            "count" : 996,
            "type" : "SCALAR"
        },
        {
            "bufferView" : 6,
            "componentType" : 5126,
            "count" : 29098,
            "max" : [
                1.041979432106018,
                0.49615833163261414,
                10.227497100830078
            ],
            "min" : [
                -3.813620090484619,
                0.02408723160624504,
                0.18781638145446777
            ],
            "type" : "VEC3"
        },
        {
            "bufferView" : 7,
            "componentType" : 5126,
            "count" : 29098,
            "type" : "VEC3"
        },
        {
            "bufferView" : 8,
            "componentType" : 5126,
            "count" : 29098,
            "type" : "VEC2"
        },
        {
            "bufferView" : 9,
            "componentType" : 5126,
            "count" : 29098,
            "type" : "VEC2"
        },
        {
            "bufferView" : 10,
            "componentType" : 5126,
            "count" : 29098,
            "type" : "VEC2"
        },
        {
            "bufferView" : 11,
            "componentType" : 5123,
            "count" : 46644,
            "type" : "SCALAR"
        },
        {
            "bufferView" : 12,
            "componentType" : 5126,
            "count" : 4967,
            "max" : [
                1.0732229948043823,
                0.49615833163261414,
                10.227497100830078
            ],
            "min" : [
                -3.813620090484619,
                0.02408723160624504,
                0.18781638145446777
            ],
            "type" : "VEC3"
        },
        {
            "bufferView" : 13,
            "componentType" : 5126,
            "count" : 4967,
            "type" : "VEC3"
        },
        {
            "bufferView" : 14,
            "componentType" : 5126,
            "count" : 4967,
            "type" : "VEC2"
        },
        {
            "bufferView" : 15,
            "componentType" : 5126,
            "count" : 4967,
            "type" : "VEC2"
        },
        {
            "bufferView" : 16,
            "componentType" : 5126,
            "count" : 4967,
            "type" : "VEC2"
        },
        {
            "bufferView" : 17,
            "componentType" : 5123,
            "count" : 9864,
            "type" : "SCALAR"
        },
        {
            "bufferView" : 18,
            "componentType" : 5126,
            "count" : 20290,
            "max" : [
                0.3528939485549927,
                0.3697325885295868,
                0.19411349296569824
            ],
            "min" : [
                -0.755075216293335,
                0.19812019169330597,
                0.1936948299407959
            ],
            "type" : "VEC3"
        },
        {
            "bufferView" : 19,
            "componentType" : 5126,
            "count" : 20290,
            "type" : "VEC3"
        },
        {
            "bufferView" : 20,
            "componentType" : 5126,
            "count" : 20290,
            "type" : "VEC2"
        },
        {
            "bufferView" : 21,
            "componentType" : 5126,
            "count" : 20290,
            "type" : "VEC2"
        },
        {
            "bufferView" : 22,
            "componentType" : 5126,
            "count" : 20290,
            "type" : "VEC2"
        },
        {
            "bufferView" : 23,
            "componentType" : 5123,
            "count" : 30936,
            "type" : "SCALAR"
        }
    ],
    "bufferViews" : [
        {
            "buffer" : 0,
            "byteLength" : 6048,
            "byteOffset" : 0
        },
        {
            "buffer" : 0,
            "byteLength" : 6048,
            "byteOffset" : 6048
        },
        {
            "buffer" : 0,
            "byteLength" : 4032,
            "byteOffset" : 12096
        },
        {
            "buffer" : 0,
            "byteLength" : 4032,
            "byteOffset" : 16128
        },
        {
            "buffer" : 0,
            "byteLength" : 4032,
            "byteOffset" : 20160
        },
        {
            "buffer" : 0,
            "byteLength" : 1992,
            "byteOffset" : 24192
        },
        {
            "buffer" : 0,
            "byteLength" : 349176,
            "byteOffset" : 26184
        },
        {
            "buffer" : 0,
            "byteLength" : 349176,
            "byteOffset" : 375360
        },
        {
            "buffer" : 0,
            "byteLength" : 232784,
            "byteOffset" : 724536
        },
        {
            "buffer" : 0,
            "byteLength" : 232784,
            "byteOffset" : 957320
        },
        {
            "buffer" : 0,
            "byteLength" : 232784,
            "byteOffset" : 1190104
        },
        {
            "buffer" : 0,
            "byteLength" : 93288,
            "byteOffset" : 1422888
        },
        {
            "buffer" : 0,
            "byteLength" : 59604,
            "byteOffset" : 1516176
        },
        {
            "buffer" : 0,
            "byteLength" : 59604,
            "byteOffset" : 1575780
        },
        {
            "buffer" : 0,
            "byteLength" : 39736,
            "byteOffset" : 1635384
        },
        {
            "buffer" : 0,
            "byteLength" : 39736,
            "byteOffset" : 1675120
        },
        {
            "buffer" : 0,
            "byteLength" : 39736,
            "byteOffset" : 1714856
        },
        {
            "buffer" : 0,
            "byteLength" : 19728,
            "byteOffset" : 1754592
        },
        {
            "buffer" : 0,
            "byteLength" : 243480,
            "byteOffset" : 1774320
        },
        {
            "buffer" : 0,
            "byteLength" : 243480,
            "byteOffset" : 2017800
        },
        {
            "buffer" : 0,
            "byteLength" : 162320,
            "byteOffset" : 2261280
        },
        {
            "buffer" : 0,
            "byteLength" : 162320,
            "byteOffset" : 2423600
        },
        {
            "buffer" : 0,
            "byteLength" : 162320,
            "byteOffset" : 2585920
        },
        {
            "buffer" : 0,
            "byteLength" : 61872,
            "byteOffset" : 2748240
        }
    ],
    "samplers" : [
        {
            "magFilter" : 9729,
            "minFilter" : 9987
        }
    ],
    "buffers" : [
        {
            "byteLength" : 2810112,
            "uri" : "phone.bin"
        }
    ]
}
