<?xml version="1.0" encoding="UTF-8" standalone="no"?>
<!DOCTYPE svg PUBLIC "-//W3C//DTD SVG 1.1//EN" "http://www.w3.org/Graphics/SVG/1.1/DTD/svg11.dtd">
<svg version="1.1" xmlns="http://www.w3.org/2000/svg" xmlns:xlink="http://www.w3.org/1999/xlink" preserveAspectRatio="xMidYMid meet" viewBox="0 0 640 640" width="640" height="640"><defs><path d="M179.4 452.31L199.86 476.67L233.95 505.89L271.94 529.27L318.7 537.07L377.15 538.04L413.2 523.43L453.14 502.78L471.65 485.44L448.27 490.31L416.12 495.18L381.05 494.2L333.32 481.54L293.38 458.94L267.07 429.71L248.56 403.61L237.85 362.69L233.95 323.72L562.96 324.1L562.96 293.87L562.96 117.43L524.38 117.39L505.87 117.39L458.84 117.39C444.41 117.39 436.39 117.39 434.78 117.39C418.32 117.39 409.18 117.39 407.35 117.39C374.64 117.39 354.19 117.39 346.01 117.39C346.01 117.39 339.13 117.43 339.13 117.43C329 117.53 303.69 117.79 263.18 118.2C261.29 118.2 251.82 118.2 234.78 118.2C231.93 118.2 217.69 118.2 192.06 118.2L158.94 118.2L134.78 118.2L120.95 118.2L118.39 219.82L120.95 327.43L127.77 353.92L144.98 404.4L179.4 452.31Z" id="bmP9Mf5Mv"></path></defs><g><g><g><use xlink:href="#bmP9Mf5Mv" opacity="1" fill="#000000" fill-opacity="1"></use><g><use xlink:href="#bmP9Mf5Mv" opacity="1" fill-opacity="0" stroke="#000000" stroke-width="1" stroke-opacity="1"></use></g></g></g></g></svg>