<?xml version="1.0" encoding="UTF-8" standalone="no"?>
<!DOCTYPE svg PUBLIC "-//W3C//DTD SVG 1.1//EN" "http://www.w3.org/Graphics/SVG/1.1/DTD/svg11.dtd">
<svg version="1.1" xmlns="http://www.w3.org/2000/svg" xmlns:xlink="http://www.w3.org/1999/xlink" preserveAspectRatio="xMidYMid meet" viewBox="0 0 640 640" width="640" height="640"><defs><path d="M157.22 356.54L191.64 404.45L212.1 428.81L246.19 458.03L284.18 481.41L330.94 489.21L389.39 490.18L425.44 475.57L465.38 454.92L483.89 437.58L460.51 442.45L428.36 447.32L393.29 446.34L345.56 433.68L305.62 411.08L279.31 381.85L260.8 355.75L250.09 314.83L246.19 275.86L575.2 276.24L575.2 246.01L572.64 158.12L540.23 158.42L521.72 158.42L474.69 158.42L450.63 158.42C434.17 158.42 425.03 158.42 423.2 158.42C390.49 158.42 370.04 158.42 361.86 158.42C361.86 158.42 354.98 158.46 354.98 158.46C344.85 158.56 319.54 158.82 279.03 159.23C277.14 159.23 267.67 159.23 250.63 159.23L207.91 159.23L174.79 159.23L150.63 159.23L136.8 159.23L130.63 171.96L133.19 279.57L140.01 306.06L157.22 356.54Z" id="k11oU7JJeT"></path></defs><g><g><g><use xlink:href="#k11oU7JJeT" opacity="1" fill="#000000" fill-opacity="1"></use><g><use xlink:href="#k11oU7JJeT" opacity="1" fill-opacity="0" stroke="#000000" stroke-width="1" stroke-opacity="1"></use></g></g></g></g></svg>