<?xml version="1.0" encoding="UTF-8" standalone="no"?>
<!DOCTYPE svg PUBLIC "-//W3C//DTD SVG 1.1//EN" "http://www.w3.org/Graphics/SVG/1.1/DTD/svg11.dtd">
<svg version="1.1" xmlns="http://www.w3.org/2000/svg" xmlns:xlink="http://www.w3.org/1999/xlink" preserveAspectRatio="xMidYMid meet" viewBox="0 0 640 640" width="640" height="640"><defs><path d="M172.84 414.66L193.3 439.02L227.39 468.24L251.54 476.38L283.77 485.75L321.71 490.99L363.74 485.75L401.97 476.38L450.56 466.08L425.47 462.66L402.99 462.66L374.49 456.55L326.76 443.89L286.82 421.29L260.51 392.06L242 365.96L231.29 325.04L227.39 286.07L556.4 286.45L556.4 256.22L556.4 154.83L523.99 155.13L505.48 155.13L458.45 155.13C444.01 155.13 435.99 155.13 434.39 155.13C417.93 155.13 408.79 155.13 406.96 155.13C374.25 155.13 353.8 155.13 345.62 155.13C345.62 155.13 338.74 155.17 338.74 155.17C328.61 155.27 303.3 155.53 262.79 155.94C260.9 155.94 251.43 155.94 234.39 155.94C231.54 155.94 217.3 155.94 191.67 155.94L158.55 155.94L134.39 155.94L120.56 155.94L114.39 168.67L114.39 289.78L121.21 316.27L138.42 366.75L172.84 414.66Z" id="c2aKLHvYTN"></path></defs><g><g><g><use xlink:href="#c2aKLHvYTN" opacity="1" fill="#000000" fill-opacity="0"></use><g><use xlink:href="#c2aKLHvYTN" opacity="1" fill-opacity="0" stroke="#000000" stroke-width="1" stroke-opacity="1"></use></g></g></g></g></svg>